<svg width="64" height="64" viewBox="0 0 64 64" fill="none" xmlns="http://www.w3.org/2000/svg">
  <rect width="64" height="64" rx="32" fill="#8A2BE2"/>
  <path d="M32 12C20.9543 12 12 20.9543 12 32C12 43.0457 20.9543 52 32 52C43.0457 52 52 43.0457 52 32C52 20.9543 43.0457 12 32 12ZM32 16C40.8366 16 48 23.1634 48 32C48 40.8366 40.8366 48 32 48C23.1634 48 16 40.8366 16 32C16 23.1634 23.1634 16 32 16Z" fill="white"/>
  <path d="M32 20L28 28H36L32 20Z" fill="white"/>
  <path d="M32 44L36 36H28L32 44Z" fill="white"/>
  <path d="M20 32L28 28V36L20 32Z" fill="white"/>
  <path d="M44 32L36 36V28L44 32Z" fill="white"/>
</svg>
